<svg id="Capa_1" enable-background="new 0 0 512.041 512.041" height="512" viewBox="0 0 512.041 512.041" width="512" xmlns="http://www.w3.org/2000/svg"><g><g id="_x3C_Group_x3E__1_"><g><path d="m219.865 158.841-12.255-60.693c-2.868-14.186-13.938-29.675-27.574-33.702l-74.894-21.447c-9.616-2.84-19.475-10.023-17.508-19.86.103-.514.227-1.029.372-1.542 2.929-10.324 13.505-16.274 23.627-13.283l75.568 22.32c27.272 8.055 47.777 30.684 53.512 59.055l14.545 69.288-21.767 9.095z" fill="#f1f6f7"/></g><g><path d="m234.835 146.421 3.92 19.45-5.26 2.2-17.66-8.65-12.48-61.87c-2.87-14.18-13.12-25.5-26.76-29.53l-75.57-22.32c-9.62-2.84-15.36-12.73-13.38-22.56l10.97 3.24 21.41 6.32 75.57 22.32c13.64 4.03 23.89 15.35 26.76 29.53z" fill="#e1ebf0"/></g><path d="m378.471 158.846h-22.587c-4.382 0-8.254 2.859-9.552 7.053l-18.311 59.187c-3.2 10.345-17.813 10.345-21.013 0l-16.129-52.134c-2.595-8.388-10.339-14.106-19.103-14.106h-138.224c-7.924 0-8.872 7.441-12.07 14.706l-38.298 87.319c-8.077 18.212-11.388 37.294-13.277 57.191-10.162 107.073 65.122 184.34 170.553 184.34l31.952 2.138c105.431 0 187.915-81.894 177.753-188.967-1.886-19.869-6.958-39.286-15.015-57.476l-38.378-87.292c-3.195-7.268-10.374-11.959-18.301-11.959z" fill="#c7865b"/><g fill="#bf7c4f"><path d="m276.014 504.511c-1.2.02-2.4.03-3.6.03h-32.8c-105.43 0-187.91-81.89-177.75-188.97l.01-.15c1.89-19.89 6.97-39.34 15.05-57.55l38.33-87.07c3.2-7.27 10.37-11.96 18.3-11.96h40c-7.93 0-15.1 4.69-18.3 11.96l-38.33 87.07c-8.08 18.21-13.16 37.66-15.05 57.55l-.01.15c-10.04 105.86 70.45 187.1 174.15 188.94z"/><ellipse cx="162.01" cy="373.908" rx="20.658" ry="21.077"/><ellipse cx="226.01" cy="417.997" rx="20.658" ry="21.077"/><ellipse cx="229.01" cy="341.844" rx="20.658" ry="21.077"/></g></g><g><path d="m133.852 373.908c0 15.758 12.631 28.577 28.157 28.577s28.158-12.819 28.158-28.577-12.632-28.577-28.158-28.577-28.157 12.82-28.157 28.577zm41.316 0c0 7.486-5.902 13.577-13.158 13.577-7.255 0-13.157-6.091-13.157-13.577s5.902-13.577 13.157-13.577 13.158 6.091 13.158 13.577z"/><path d="m226.01 389.42c-15.526 0-28.157 12.819-28.157 28.577s12.631 28.577 28.157 28.577 28.158-12.819 28.158-28.577-12.632-28.577-28.158-28.577zm0 42.154c-7.255 0-13.157-6.091-13.157-13.577s5.902-13.577 13.157-13.577c7.256 0 13.158 6.091 13.158 13.577s-5.903 13.577-13.158 13.577z"/><path d="m229.01 313.267c-15.526 0-28.157 12.819-28.157 28.577s12.631 28.577 28.157 28.577 28.158-12.819 28.158-28.577-12.632-28.577-28.158-28.577zm0 42.154c-7.255 0-13.157-6.091-13.157-13.577s5.902-13.577 13.157-13.577c7.256 0 13.158 6.091 13.158 13.577s-5.903 13.577-13.158 13.577z"/><path d="m457.634 314.865c-1.967-20.717-7.224-40.839-15.616-59.786l-38.379-87.291c-4.392-9.988-14.271-16.442-25.168-16.442h-22.587c-7.717 0-14.435 4.958-16.716 12.336l-18.312 59.188c-1.35 3.441-5.333 3.443-6.684 0l-4.28-13.836c-1.224-3.956-5.419-6.174-9.382-4.948-3.957 1.225-6.172 5.425-4.948 9.382l4.28 13.836c2.451 7.923 9.388 13.042 17.672 13.042s15.221-5.119 17.672-13.042l18.312-59.188c.327-1.058 1.286-1.769 2.386-1.769h22.587c4.95 0 9.439 2.936 11.437 7.479l38.387 87.31c7.746 17.487 12.593 36.042 14.406 55.148 4.828 50.863-11.813 97.795-46.855 132.149-2.958 2.899-3.006 7.648-.105 10.605 1.469 1.499 3.411 2.25 5.355 2.25 1.895 0 3.791-.713 5.25-2.145 38.336-37.582 56.55-88.821 51.288-144.278z"/><path d="m369.662 469.287c-28.263 18.157-61.891 27.754-97.248 27.754h-32.799c-50.063 0-95.416-18.809-127.704-52.96-30.371-32.123-45.683-75.007-43.114-120.751.232-4.135-2.933-7.676-7.068-7.908-4.126-.229-7.676 2.932-7.908 7.068-2.802 49.903 13.958 96.745 47.19 131.896 17.152 18.142 37.798 32.383 61.364 42.326 24.105 10.172 50.093 15.329 77.24 15.329h32.799c38.238 0 74.67-10.42 105.355-30.133 3.485-2.239 4.495-6.879 2.257-10.364-2.24-3.485-6.88-4.495-10.364-2.257z"/><path d="m64.695 295.575c.606.15 1.213.223 1.811.223 3.366 0 6.428-2.283 7.273-5.697 2.476-9.984 5.841-19.806 10.012-29.21l38.326-87.07c1.999-4.541 6.487-7.475 11.436-7.475h138.223c5.508 0 10.306 3.546 11.938 8.823l1.502 4.854c1.225 3.956 5.421 6.174 9.382 4.948 3.957-1.225 6.173-5.425 4.948-9.382l-1.502-4.854c-3.589-11.598-14.146-19.39-26.269-19.39h-10.467l-13.242-63.144c-6.289-31.103-28.797-55.917-58.739-64.761l-11.069-3.27c-3.98-1.178-8.145 1.097-9.317 5.067-1.174 3.973 1.096 8.145 5.067 9.317l11.07 3.27c24.599 7.266 43.102 27.708 48.296 53.401l12.607 60.118h-24.127l-11.153-55.28c-3.419-16.916-15.675-30.417-31.984-35.234l-75.567-22.32c-6.18-1.824-9.735-8.494-7.928-14.867 1.587-6.09 8.267-10.034 14.288-8.137l30.919 9.132c3.974 1.177 8.143-1.096 9.316-5.068 1.174-3.972-1.096-8.144-5.068-9.316l-30.917-9.131c-13.762-4.366-29.333 4.475-32.968 18.428-4.042 14.245 4.082 29.205 18.109 33.347l75.566 22.319c10.966 3.239 19.215 12.367 21.53 23.819l10.555 52.311h-73c-10.893 0-20.771 6.45-25.164 16.432l-38.318 87.05c-4.515 10.182-8.165 20.834-10.85 31.663-.997 4.021 1.455 8.088 5.475 9.084z"/></g></g></svg>